# File created by Blade
# Date/Time:  Wed Jan 21 16:02:01 2015
# Frame Rate: 120.000 fps
#------------------------------------------------------
:FULLY-SPECIFIED
:DEGREES
574
root 19.803042 32.657787 -17.829515 -173.225284 4.122134 -179.694369
Spine -19.998317 6.898933 1.415919
Head 13.696271 0.435363 -10.452663
LeftShoulder -20.129078 -30.774994 6.812541
LeftArm -19.325105 -5.250406 -26.199248
LeftForeArm 4.999953 -0.000000 1.790148
LeftHand -0.383967 -0.000000 -5.464188
LeftHandThumb1 -26.253704 0.000000 33.147579
RightShoulder -5.798753 4.088098 -38.760967
RightArm 9.417836 28.713416 -8.079232
RightForeArm -43.764838 0.000000 5.127570
RightHand -0.011927 -0.000000 11.589415
RightHandThumb1 -24.326973 -0.000000 -32.862282
LeftUpLeg 14.357367 1.983830 -18.845414
LeftLeg -2.541640 -0.000000 0.000000
LeftFoot -33.637336 20.061135 -15.360380
LeftToeBase 16.574816 -0.000000 -0.000000
RightUpLeg -17.367954 10.461679 21.341780
RightLeg -2.761267 -0.000000 0.000000
RightFoot -1.347844 -31.345323 -2.851951
RightToeBase 20.722213 -0.000000 -0.000000
575
root 19.803531 32.656065 -17.835616 -173.185540 4.118758 -179.684326
Spine -20.045736 6.965925 1.318043
Head 13.755869 0.367861 -10.380667
LeftShoulder -20.199499 -30.671057 6.594650
LeftArm -20.344301 -5.460014 -27.190139
LeftForeArm 4.962740 -0.000000 2.056386
LeftHand -0.919367 -0.000000 -5.956186
LeftHandThumb1 -26.253704 0.000000 33.147579
RightShoulder -5.701247 4.859798 -39.332671
RightArm 9.909196 29.224161 -8.516748
RightForeArm -44.022806 -0.000000 5.237854
RightHand -0.090490 -0.000000 11.261839
RightHandThumb1 -24.326973 -0.000000 -32.862282
LeftUpLeg 14.322338 1.972979 -18.833418
LeftLeg -2.522748 -0.000000 0.000000
LeftFoot -33.654659 20.049141 -15.357428
LeftToeBase 16.530474 -0.000000 -0.000000
RightUpLeg -17.382628 10.500426 21.341594
RightLeg -2.784065 -0.000000 0.000000
RightFoot -1.356536 -31.382688 -2.892861
RightToeBase 20.724439 -0.000000 -0.000000
576
root 19.803838 32.654387 -17.841688 -173.154332 4.114797 -179.676065
Spine -20.077187 7.006447 1.225767
Head 13.796482 0.372840 -10.266487
LeftShoulder -20.264948 -30.517523 6.358449
LeftArm -21.337864 -5.840154 -28.112648
LeftForeArm 5.264434 -0.000000 2.293435
LeftHand -1.085633 -0.000000 -6.011464
LeftHandThumb1 -26.253704 0.000000 33.147579
RightShoulder -5.620496 5.522809 -39.874757
RightArm 10.457560 29.898796 -8.930448
RightForeArm -44.133693 -0.000000 5.380099
RightHand -0.274374 -0.000000 11.251053
RightHandThumb1 -24.326973 -0.000000 -32.862282
LeftUpLeg 14.290827 1.974553 -18.822486
LeftLeg -2.496400 -0.000000 0.000000
LeftFoot -33.695678 20.030058 -15.347372
LeftToeBase 16.694672 -0.000000 -0.000000
RightUpLeg -17.397364 10.574978 21.325883
RightLeg -2.800205 -0.000000 0.000000
RightFoot -1.361203 -31.465044 -2.922048
RightToeBase 20.693442 -0.000000 -0.000000
577
root 19.804244 32.653403 -17.846996 -173.106429 4.087665 -179.659366
Spine -20.133656 7.031135 1.145434
Head 13.852012 0.376675 -10.139359
LeftShoulder -20.322871 -30.428355 6.140711
LeftArm -22.280631 -6.170898 -28.998331
LeftForeArm 5.447064 -0.000000 2.339888
LeftHand -1.249974 -0.000000 -6.210469
LeftHandThumb1 -26.253704 0.000000 33.147579
RightShoulder -5.559109 6.191786 -40.425091
RightArm 11.065540 30.443155 -9.284535
RightForeArm -44.261627 -0.000000 5.516072
RightHand -0.442794 -0.000000 11.116768
RightHandThumb1 -24.326973 -0.000000 -32.862282
LeftUpLeg 14.232884 1.985153 -18.793416
LeftLeg -2.448209 -0.000000 0.000000
LeftFoot -33.721122 20.028477 -15.301388
LeftToeBase 16.719144 -0.000000 -0.000000
RightUpLeg -17.438005 10.636010 21.315898
RightLeg -2.808959 -0.000000 0.000000
RightFoot -1.358469 -31.538922 -2.944152
RightToeBase 20.650256 -0.000000 -0.000000
578
root 19.802305 32.651876 -17.854486 -173.090106 4.063797 -179.651450
Spine -20.150858 7.055021 1.071723
Head 13.910270 0.372528 -10.035257
LeftShoulder -20.332890 -30.526287 5.919792
LeftArm -23.347983 -6.435362 -29.741364
LeftForeArm 5.768306 -0.000000 2.352543
LeftHand -1.402166 -0.000000 -6.416469
LeftHandThumb1 -26.253704 0.000000 33.147579
RightShoulder -5.459642 6.857077 -40.952295
RightArm 11.634157 30.803801 -9.702686
RightForeArm -44.307670 -0.000000 5.587880
RightHand -0.550242 0.000000 10.862501
RightHandThumb1 -24.326973 -0.000000 -32.862282
LeftUpLeg 14.213859 2.003912 -18.777884
LeftLeg -2.407812 -0.000000 0.000000
LeftFoot -33.779595 19.995804 -15.338009
LeftToeBase 16.844845 -0.000000 -0.000000
RightUpLeg -17.438160 10.617744 21.330306
RightLeg -2.822782 -0.000000 0.000000
RightFoot -1.362372 -31.559733 -3.022881
RightToeBase 20.659421 -0.000000 -0.000000
579
root 19.799448 32.650482 -17.859832 -173.049437 4.036247 -179.641466
Spine -20.193773 7.078655 0.993759
Head 13.924590 0.330671 -9.879027
LeftShoulder -20.290110 -30.769942 5.699149
LeftArm -24.525007 -6.506686 -30.405707
LeftForeArm 6.063677 0.000000 2.340787
LeftHand -1.385815 -0.000000 -6.787805
LeftHandThumb1 -26.253704 0.000000 33.147579
RightShoulder -5.368608 7.403211 -41.442030
RightArm 12.211718 31.281859 -10.110385
RightForeArm -44.412281 -0.000000 5.662468
RightHand -0.658233 -0.000000 10.606093
RightHandThumb1 -24.326973 -0.000000 -32.862282
LeftUpLeg 14.163706 2.056406 -18.753315
LeftLeg -2.362383 -0.000000 0.000000
LeftFoot -33.803495 19.938556 -15.312271
LeftToeBase 16.812403 -0.000000 -0.000000
RightUpLeg -17.482096 10.689330 21.302351
RightLeg -2.812268 -0.000000 0.000000
RightFoot -1.360458 -31.620506 -3.091495
RightToeBase 20.616457 -0.000000 -0.000000
580
root 19.796892 32.649682 -17.863492 -172.989414 4.048493 -179.637980
Spine -20.259492 7.160900 0.881558
Head 13.913545 0.225613 -9.724171
LeftShoulder -20.247309 -30.909799 5.443889
LeftArm -25.551361 -6.483436 -31.153267
LeftForeArm 6.298416 0.000000 2.364555
LeftHand -1.528022 -0.000000 -7.004430
LeftHandThumb1 -26.253704 0.000000 33.147579
RightShoulder -5.298280 7.943079 -41.915649
RightArm 12.805780 31.809752 -10.469576
RightForeArm -44.569489 -0.000000 5.777213
RightHand -0.736235 -0.000000 10.519534
RightHandThumb1 -24.326973 -0.000000 -32.862282
LeftUpLeg 14.072559 2.109387 -18.746995
LeftLeg -2.295346 -0.000000 0.000000
LeftFoot -33.839818 19.899315 -15.308941
LeftToeBase 16.946784 -0.000000 -0.000000
RightUpLeg -17.547199 10.819055 21.254537
RightLeg -2.777132 -0.000000 0.000000
RightFoot -1.346664 -31.671841 -3.188795
RightToeBase 20.598689 -0.000000 -0.000000
581
root 19.795233 32.650069 -17.866299 -172.927310 4.031733 -179.633965
Spine -20.314578 7.257768 0.757996
Head 13.893395 0.099383 -9.532985
LeftShoulder -20.176475 -30.967172 5.165296
LeftArm -26.505765 -6.539116 -31.949575
LeftForeArm 6.554467 -0.000000 2.487707
LeftHand -1.830701 -0.000000 -7.228421
LeftHandThumb1 -26.253704 0.000000 33.147579
RightShoulder -5.332333 8.490342 -42.374920
RightArm 13.529672 32.257722 -10.788267
RightForeArm -44.670307 -0.000000 5.848665
RightHand -0.837004 -0.000000 10.288559
RightHandThumb1 -24.326973 -0.000000 -32.862282
LeftUpLeg 13.978145 2.143847 -18.732966
LeftLeg -2.213739 -0.000000 0.000000
LeftFoot -33.873708 19.846458 -15.320449
LeftToeBase 17.069079 -0.000000 -0.000000
RightUpLeg -17.613291 10.927242 21.211326
RightLeg -2.778293 -0.000000 0.000000
RightFoot -1.364542 -31.769546 -3.161427
RightToeBase 20.692265 -0.000000 -0.000000
582
root 19.793862 32.649503 -17.869327 -172.861306 3.986769 -179.638596
Spine -20.374321 7.357509 0.607152
Head 13.853632 -0.074418 -9.313113
LeftShoulder -20.019438 -30.935335 4.866364
LeftArm -27.463391 -6.597825 -32.816269
LeftForeArm 6.723371 0.000000 2.698110
LeftHand -1.949954 -0.000000 -7.397898
LeftHandThumb1 -26.253704 0.000000 33.147579
RightShoulder -5.395031 8.984105 -42.815099
RightArm 14.245696 32.726748 -11.093697
RightForeArm -44.773589 -0.000000 5.963364
RightHand -0.997000 -0.000000 10.181351
RightHandThumb1 -24.326973 -0.000000 -32.862282
LeftUpLeg 13.891635 2.156840 -18.722776
LeftLeg -2.146173 -0.000000 0.000000
LeftFoot -33.887248 19.802731 -15.307503
LeftToeBase 17.029737 -0.000000 -0.000000
RightUpLeg -17.685653 11.012631 21.161243
RightLeg -2.777766 -0.000000 0.000000
RightFoot -1.336012 -31.854619 -3.223971
RightToeBase 20.565531 -0.000000 -0.000000
583
root 19.793564 32.649354 -17.873327 -172.789634 3.934934 -179.621656
Spine -20.428159 7.438062 0.491850
Head 13.769362 -0.212898 -9.116456
LeftShoulder -19.923827 -30.825811 4.601518
LeftArm -28.368931 -6.654160 -33.777611
LeftForeArm 6.752999 -0.000000 3.038962
LeftHand -2.178599 -0.000000 -7.641281
LeftHandThumb1 -26.253704 0.000000 33.147579
RightShoulder -5.454749 9.486902 -43.218465
RightArm 14.995046 33.221916 -11.398917
RightForeArm -44.902795 0.000000 6.060375
RightHand -1.138267 -0.000000 9.978796
RightHandThumb1 -24.326973 -0.000000 -32.862282
LeftUpLeg 13.810191 2.166384 -18.689124
LeftLeg -2.091231 -0.000000 0.000000
LeftFoot -33.931002 19.759604 -15.298266
LeftToeBase 17.102730 -0.000000 -0.000000
RightUpLeg -17.755758 11.082452 21.133388
RightLeg -2.795406 -0.000000 0.000000
RightFoot -1.360095 -31.940123 -3.211347
RightToeBase 20.719119 -0.000000 -0.000000
584
root 19.792977 32.649532 -17.875434 -172.723701 3.879959 -179.608163
Spine -20.459190 7.474834 0.382440
Head 13.642912 -0.322792 -8.911189
LeftShoulder -19.916875 -30.633585 4.375427
LeftArm -29.175051 -6.966736 -34.706590
LeftForeArm 7.043531 -0.000000 3.389169
LeftHand -2.434224 0.000000 -7.458871
LeftHandThumb1 -26.253704 0.000000 33.147579
RightShoulder -5.521857 9.834047 -43.571750
RightArm 15.747349 33.936311 -11.677722
RightForeArm -44.975752 0.000000 6.187891
RightHand -1.256218 -0.000000 9.748078
RightHandThumb1 -24.326973 -0.000000 -32.862282
LeftUpLeg 13.728922 2.176542 -18.659581
LeftLeg -2.030675 -0.000000 0.000000
LeftFoot -33.955540 19.728844 -15.266784
LeftToeBase 16.999938 -0.000000 -0.000000
RightUpLeg -17.823666 11.157410 21.098548
RightLeg -2.803167 -0.000000 0.000000
RightFoot -1.345361 -32.002183 -3.219357
RightToeBase 20.535999 -0.000000 -0.000000
